<?xml version="1.0" standalone="no"?>
<!DOCTYPE svg PUBLIC "-//W3C//DTD SVG 20010904//EN"
 "http://www.w3.org/TR/2001/REC-SVG-20010904/DTD/svg10.dtd">
<svg version="1.0" xmlns="http://www.w3.org/2000/svg"
 width="247.000000pt" height="247.000000pt" viewBox="0 0 247.000000 247.000000"
 preserveAspectRatio="xMidYMid meet">
<metadata>
Created by potrace 1.11, written by Peter Selinger 2001-2013
</metadata>
<g transform="translate(0.000000,247.000000) scale(0.100000,-0.100000)"
fill="#000000" stroke="none">
<path d="M1240 2451 c0 -18 -4 -22 -17 -16 -39 17 -57 11 -63 -20 -4 -23 -10
-29 -25 -27 -11 2 -16 -1 -10 -5 22 -17 33 -58 19 -70 -10 -10 -14 -9 -17 5
-2 9 -3 -10 -2 -43 3 -74 2 -70 20 -55 8 7 15 8 15 2 0 -5 -6 -15 -14 -21 -12
-10 -19 -8 -35 8 -17 17 -21 18 -32 4 -12 -13 -14 -13 -26 3 -12 16 -13 14
-13 -20 0 -48 22 -73 44 -51 13 13 15 13 21 -6 4 -11 4 -23 1 -26 -3 -4 -6 -1
-6 5 0 6 -7 9 -16 5 -29 -11 9 -23 42 -13 16 4 21 9 12 9 -10 1 -18 7 -18 14
1 15 30 55 31 41 0 -5 4 0 9 11 8 19 9 19 9 -1 1 -14 -7 -24 -19 -27 -23 -6
-27 -27 -5 -27 24 0 17 -20 -10 -30 -14 -5 -25 -11 -25 -12 -1 -15 -29 -79
-30 -67 0 9 -10 21 -22 27 -18 8 -19 11 -5 11 21 1 21 16 1 56 -14 30 -13 7 2
-29 5 -13 4 -17 -4 -12 -16 10 -25 -11 -13 -31 6 -10 11 -13 11 -8 0 11 20
-15 20 -27 0 -5 -14 -8 -32 -8 -25 0 -29 3 -20 12 18 18 15 28 -10 29 -17 1
-19 2 -5 6 27 7 20 24 -9 19 -30 -6 -45 -16 -23 -16 11 0 11 -2 -1 -10 -13 -8
-12 -10 3 -10 10 0 15 -4 12 -10 -3 -5 -1 -10 4 -10 6 0 11 -8 11 -17 0 -15
-2 -16 -10 -3 -8 13 -10 13 -10 1 0 -11 -3 -11 -13 3 -12 16 -14 15 -34 -8
-12 -13 -19 -26 -17 -29 3 -2 -2 -7 -11 -11 -9 -3 -13 -2 -10 4 8 14 -1 13
-25 -2 -17 -11 -22 -10 -29 1 -5 7 -14 12 -21 9 -7 -2 2 -12 21 -21 29 -14 31
-17 11 -17 -15 0 -21 -4 -16 -12 4 -7 3 -8 -5 -4 -6 4 -9 11 -6 16 3 5 1 11
-5 15 -9 6 -14 -8 -11 -28 1 -4 -8 -2 -19 5 -17 10 -18 14 -5 16 19 4 19 16 1
31 -11 9 -20 9 -35 2 -23 -13 -34 -14 -28 -3 3 4 -30 5 -74 2 -43 -3 -79 -2
-79 2 0 4 -23 6 -50 4 -28 -2 -52 0 -55 4 -6 10 51 21 72 13 17 -5 17 -5 1 12
-16 17 -19 17 -51 1 -19 -9 -42 -16 -51 -16 -28 0 -17 -18 14 -25 38 -8 38
-17 1 -33 -35 -15 -78 -7 -83 16 -3 11 -6 7 -10 -10 -5 -25 -3 -27 18 -24 13
3 26 0 29 -5 4 -5 13 -5 25 1 24 13 30 13 30 -1 0 -5 -4 -8 -9 -5 -13 8 -44
-31 -35 -45 4 -8 3 -10 -4 -5 -7 4 -12 3 -12 -1 0 -5 -7 -18 -15 -29 -14 -18
-14 -17 -5 10 6 16 9 31 6 33 -8 8 -34 -55 -26 -64 4 -4 3 -19 -2 -33 -8 -19
-12 -22 -17 -10 -6 15 -31 26 -31 13 0 -3 7 -15 17 -25 15 -17 15 -19 0 -36
-23 -25 -25 -227 -3 -235 8 -3 16 -16 18 -29 2 -13 9 -22 15 -21 8 2 10 -4 6
-14 -4 -10 -2 -14 4 -10 7 5 9 -1 5 -15 -4 -17 -2 -20 11 -15 10 4 17 2 17 -4
0 -6 5 -7 10 -4 15 9 12 -2 -6 -19 -8 -9 -11 -16 -5 -16 6 0 11 -4 11 -10 0
-6 -10 -5 -25 2 -25 11 -34 28 -15 28 6 0 0 15 -12 34 -18 27 -25 31 -31 21
-4 -9 -1 -27 8 -45 14 -27 14 -29 -2 -24 -10 2 -3 -3 14 -12 37 -20 41 -30 15
-37 -13 -4 -12 -5 5 -6 12 0 25 4 28 9 4 6 11 8 16 5 5 -4 9 8 9 25 0 19 4 29
10 25 6 -4 7 -11 4 -17 -5 -7 -2 -9 7 -6 17 6 20 -27 5 -50 -6 -11 -12 -10
-27 4 -10 9 -19 12 -19 6 0 -6 4 -13 10 -17 5 -3 7 -12 4 -19 -3 -7 3 -21 12
-31 17 -17 17 -17 -4 -11 -13 5 -22 3 -22 -3 0 -6 14 -11 31 -11 26 0 29 -3
20 -14 -9 -11 -8 -15 5 -20 23 -9 36 -7 29 4 -3 6 -3 19 0 31 5 16 10 18 21 8
24 -20 16 -46 -21 -63 -31 -15 -37 -15 -50 -3 -8 8 -11 17 -8 21 4 3 2 6 -4 6
-17 0 -25 -32 -11 -42 10 -6 9 -8 -4 -8 -23 0 -32 -18 -18 -35 8 -9 8 -15 0
-20 -6 -3 -7 -11 -3 -18 4 -7 8 -5 12 6 5 13 8 12 18 -8 6 -14 7 -23 2 -19 -5
3 -10 -2 -10 -10 -2 -24 -4 -29 -17 -53 -16 -29 6 -87 28 -73 21 13 36 12 23
-1 -7 -7 -24 -13 -38 -15 -20 -2 -25 1 -21 12 5 12 1 14 -15 9 -15 -5 -19 -4
-15 4 4 6 2 11 -3 11 -6 0 -11 -9 -11 -20 0 -11 -4 -20 -10 -20 -5 0 -10 -9
-10 -20 0 -16 7 -20 38 -20 20 0 46 -1 57 -2 36 -3 75 2 75 10 0 4 -18 6 -40
4 -27 -3 -40 0 -40 8 0 8 9 10 25 6 15 -4 29 -1 37 8 11 11 15 11 24 -3 8 -10
9 -22 3 -32 -6 -12 -3 -22 11 -34 11 -10 20 -23 20 -28 0 -6 -6 -3 -13 7 -13
18 -14 18 -22 0 -7 -17 -10 -50 -5 -56 8 -11 3 -55 -6 -51 -6 2 -10 19 -9 37
1 29 -2 33 -28 33 -15 0 -24 -3 -20 -6 14 -10 16 -73 2 -82 -10 -6 -10 -11 0
-23 10 -12 11 -20 3 -29 -7 -8 -8 -25 -3 -43 6 -25 14 -30 55 -39 26 -6 44
-14 40 -18 -4 -4 0 -7 9 -7 10 0 17 -7 17 -15 0 -18 -16 -20 -23 -2 -3 7 -24
13 -51 15 -29 1 -45 -2 -41 -8 3 -6 14 -10 25 -10 11 0 20 -10 24 -24 4 -18
11 -23 26 -19 11 3 20 0 20 -6 0 -6 5 -11 11 -11 6 0 8 8 5 18 -4 11 2 22 14
30 18 11 21 9 30 -12 5 -13 14 -27 19 -31 8 -4 8 2 1 20 -13 34 -13 44 1 25 8
-12 10 -11 7 5 -3 15 -10 19 -29 17 -14 -2 -31 3 -37 11 -9 11 -1 13 47 13
l57 0 0 -38 c0 -26 -3 -33 -9 -23 -4 8 -5 21 -1 28 5 9 4 9 -7 -1 -7 -7 -14
-25 -15 -40 -1 -37 -27 -40 -40 -5 -10 27 -10 27 -16 5 -4 -15 -3 -20 5 -15 7
3 9 3 5 -2 -12 -13 18 -34 43 -29 13 2 18 1 11 -2 -10 -5 -9 -9 5 -20 17 -12
16 -13 -5 -7 -17 4 -21 2 -17 -10 5 -10 -1 -15 -19 -15 -14 0 -26 4 -26 9 0 5
-7 6 -16 2 -13 -5 -13 -7 -2 -14 8 -5 0 -7 -20 -4 -22 2 -35 -1 -39 -11 -3 -9
-13 -12 -32 -8 -33 8 -46 20 -31 29 6 4 17 2 23 -4 16 -16 34 -14 41 5 4 12 2
15 -9 10 -10 -3 -15 1 -15 13 0 18 24 22 48 7 7 -4 12 -2 12 7 0 10 8 13 28 9
23 -4 25 -3 15 10 -13 15 -47 18 -59 5 -14 -14 -34 -6 -34 13 0 13 -7 20 -19
20 -24 0 -36 -16 -19 -23 7 -3 -4 -3 -24 0 -37 5 -38 5 -38 -26 0 -17 5 -31
10 -31 6 0 10 8 10 17 0 13 3 14 12 5 9 -9 6 -16 -11 -31 -17 -15 -22 -28 -19
-57 3 -41 21 -50 64 -34 18 7 22 6 17 -5 -3 -8 0 -15 6 -15 6 0 11 5 11 10 0
7 7 7 21 -1 12 -6 45 -9 75 -7 29 3 51 1 49 -2 -2 -4 6 -5 19 -3 13 3 27 0 30
-6 7 -11 0 -12 -84 -15 -19 -1 -46 -5 -59 -10 -16 -6 -21 -5 -17 3 4 6 14 11
23 11 9 0 14 2 11 5 -3 3 -19 2 -37 -1 -23 -5 -29 -9 -19 -15 10 -7 9 -9 -4
-9 -11 0 -15 -5 -12 -15 8 -19 28 -19 58 1 16 10 26 12 31 5 9 -15 35 -14 30
2 -4 9 13 13 62 15 37 2 75 8 84 13 12 6 21 4 29 -6 15 -18 30 -10 30 16 0 22
-11 24 -28 7 -8 -8 -12 -9 -12 -1 0 6 -9 9 -19 6 -15 -4 -19 0 -17 20 1 17 6
23 15 19 9 -3 12 -1 7 6 -4 7 -3 12 3 12 5 0 12 -6 15 -12 4 -7 5 -4 2 8 -2
13 4 25 15 32 15 10 17 17 9 37 -7 18 -6 25 3 25 8 0 7 3 -3 9 -8 6 -18 7 -24
4 -5 -4 -6 -1 -2 6 5 7 14 10 21 7 7 -2 16 1 18 8 3 8 -1 13 -11 12 -11 -1
-16 7 -15 22 1 37 2 40 19 46 8 3 12 2 9 -4 -11 -18 14 -10 25 8 11 16 11 16
6 -1 -3 -10 1 -32 10 -49 12 -23 13 -29 2 -25 -7 2 -12 10 -10 16 1 6 -3 11
-9 11 -5 0 -7 5 -4 10 3 6 2 10 -3 10 -18 0 -21 -13 -6 -27 9 -10 11 -19 5
-27 -5 -6 -11 -22 -13 -36 -3 -23 0 -25 35 -24 27 0 37 -4 38 -15 0 -10 4 -8
9 7 5 12 14 22 20 22 5 0 10 5 10 10 0 6 -7 10 -15 10 -8 0 -15 -4 -15 -10 0
-5 -4 -10 -10 -10 -15 0 -12 37 3 37 6 1 39 4 71 8 55 6 61 4 78 -17 10 -13
18 -17 18 -10 0 6 9 12 19 12 22 0 28 -14 24 -57 -4 -43 -5 -72 -2 -103 1 -14
1 -34 0 -45 -2 -17 -4 -16 -17 8 -8 15 -17 27 -20 27 -2 0 0 -9 6 -19 14 -28
12 -36 -5 -21 -10 9 -15 9 -15 1 0 -6 3 -11 8 -12 4 0 15 -2 24 -4 10 -2 21 1
24 6 8 14 47 -39 40 -56 -8 -23 4 -45 24 -45 11 0 22 -5 26 -12 5 -8 2 -9 -9
-5 -26 10 -20 -8 6 -20 19 -9 16 -10 -20 -8 -23 1 -40 -1 -38 -5 3 -4 23 -8
45 -8 30 -1 40 3 40 15 0 10 6 13 16 9 9 -3 19 -6 22 -6 4 0 1 -4 -7 -9 -8 -6
6 -9 40 -9 37 1 48 3 34 9 -11 4 -15 8 -10 9 6 0 21 10 35 21 14 12 18 19 9
16 -12 -4 -15 1 -14 22 1 15 6 34 11 42 11 18 13 59 2 59 -4 0 -8 7 -8 15 0 8
-3 14 -7 14 -21 -3 -26 2 -13 12 13 9 12 10 -3 5 -20 -6 -23 0 -31 66 -6 47
-5 47 19 36 30 -13 55 3 55 36 -1 20 -2 20 -14 3 -8 -10 -26 -17 -46 -17 -29
0 -32 3 -27 23 6 20 5 21 -7 4 -12 -16 -14 -16 -20 -1 -10 26 -8 27 39 22 28
-4 42 -2 39 4 -4 6 3 5 16 -2 20 -11 21 -10 9 12 -11 21 -11 22 4 10 9 -8 24
-12 34 -9 15 3 13 6 -9 15 -16 6 -28 16 -28 22 0 6 5 8 10 5 6 -3 19 -3 30 0
24 8 27 50 4 59 -13 5 -14 9 -4 21 11 13 8 15 -18 15 -36 0 -41 6 -42 46 -1
50 2 69 13 82 6 8 6 12 -2 12 -6 0 -11 13 -11 29 0 35 21 45 92 43 26 0 50 3
53 9 4 5 11 7 16 4 5 -4 9 -1 9 5 0 6 5 8 11 4 8 -5 6 -10 -5 -16 -9 -5 -16
-17 -16 -26 0 -15 -2 -15 -10 -2 -8 12 -10 10 -11 -10 l-1 -25 -8 25 c-5 14
-8 18 -9 9 -1 -19 -38 -32 -44 -16 -2 8 -6 7 -11 -1 -4 -7 -2 -12 3 -12 6 0
11 -10 11 -21 0 -18 -2 -19 -15 -9 -13 11 -15 8 -15 -13 0 -14 6 -28 13 -30 7
-3 5 -6 -5 -6 -12 -1 -18 6 -18 19 0 38 -15 20 -17 -20 -1 -42 5 -48 25 -28 7
7 12 9 12 4 0 -4 7 -1 15 8 8 8 15 32 15 55 0 23 4 41 8 41 4 0 8 -25 8 -55 1
-30 -3 -55 -7 -55 -5 0 -9 -5 -9 -11 0 -6 9 -8 20 -4 11 4 29 0 42 -9 32 -23
38 -20 38 19 0 23 -5 35 -14 35 -9 0 -15 15 -18 45 -2 34 0 44 11 42 8 -1 16
5 18 13 4 13 3 13 -6 0 -9 -13 -11 -13 -11 3 0 9 4 17 9 17 11 0 32 -25 26
-31 -2 -3 5 -5 15 -6 11 -1 20 4 20 12 0 8 8 18 17 24 26 14 -2 41 -43 41 -32
0 -33 1 -29 38 2 29 0 39 -11 39 -8 0 -13 -6 -10 -14 3 -7 1 -13 -5 -13 -6 0
-6 -7 1 -19 6 -12 6 -22 1 -25 -10 -6 -21 30 -26 84 -3 27 -1 31 6 17 11 -18
39 -24 39 -7 0 5 -8 6 -17 3 -16 -6 -16 -5 -4 10 18 22 28 21 34 -3 3 -11 12
-20 20 -20 13 0 14 6 7 30 -5 18 -5 32 1 36 5 3 7 10 3 15 -4 6 -11 6 -20 -2
-10 -8 -17 -7 -30 5 -9 10 -25 15 -38 11 -11 -2 -15 -2 -8 1 6 3 10 10 6 15
-3 5 0 9 6 9 6 0 9 4 6 8 -2 4 -1 14 5 22 6 11 9 12 9 2 0 -7 5 -10 10 -7 6 4
7 12 3 18 -4 7 2 5 12 -3 17 -14 18 -14 7 7 -15 27 -10 29 56 31 40 1 52 -2
52 -13 0 -8 -5 -15 -11 -15 -5 0 -7 -4 -4 -10 3 -5 -1 -10 -10 -10 -12 0 -15
5 -9 22 6 21 6 21 -11 4 -14 -14 -15 -20 -5 -26 7 -4 11 -13 9 -19 -3 -7 -11
-4 -21 8 -16 18 -16 22 -2 36 9 8 11 15 5 15 -5 0 -13 -5 -16 -10 -4 -6 -10
-8 -15 -5 -5 3 0 -22 12 -55 19 -57 38 -74 44 -39 1 7 7 25 13 39 9 22 10 21
5 -12 -4 -25 -2 -38 5 -38 6 0 11 7 11 15 0 8 5 15 10 15 6 0 10 -7 10 -15 0
-8 5 -15 11 -15 14 0 2 72 -14 83 -8 6 -7 7 3 4 8 -2 16 -13 18 -25 2 -12 10
-22 18 -22 7 0 19 -9 26 -19 9 -15 15 -17 30 -8 22 14 24 47 3 47 -21 0 -19
27 3 39 16 10 16 12 0 24 -13 11 -15 16 -6 25 9 9 5 12 -18 12 -22 0 -26 3
-14 10 13 8 12 10 -2 10 -10 0 -18 4 -18 10 0 5 8 7 18 4 13 -5 14 -4 3 4 -10
7 -20 6 -33 -1 -17 -11 -17 -12 0 -19 9 -3 13 -7 7 -8 -5 0 1 -7 13 -14 l24
-13 -26 -17 c-15 -9 -24 -21 -21 -26 3 -6 -1 -7 -10 -4 -13 5 -13 9 -3 22 11
13 10 15 -6 9 -18 -7 -18 -6 -1 19 9 15 12 23 6 20 -15 -9 -13 15 2 35 16 20
45 31 52 19 4 -6 14 -6 27 1 15 8 19 8 13 0 -4 -8 13 -10 62 -7 93 5 118 13
134 42 8 15 15 20 20 13 4 -7 9 -8 13 -1 3 6 2 14 -4 17 -8 5 -7 11 1 21 8 10
8 14 0 14 -6 0 -11 8 -11 18 0 13 2 14 9 4 6 -10 10 -8 14 9 8 28 0 39 -14 19
-9 -13 -10 -13 -6 1 3 9 0 22 -6 29 -9 10 -9 11 1 6 6 -4 12 -3 12 3 0 5 -5
11 -12 13 -9 3 -9 6 0 12 7 4 14 -3 18 -19 3 -14 10 -25 14 -25 10 0 1 38 -12
46 -5 3 -4 12 3 20 7 9 9 30 4 61 -6 43 -8 45 -16 24 -5 -13 -10 -38 -12 -57
-2 -35 -11 -44 -20 -21 -4 9 -8 9 -15 -2 -5 -7 -12 -9 -15 -4 -4 5 -16 9 -29
7 -13 -1 -27 -3 -32 -3 -4 -1 -1 -12 8 -25 15 -24 13 -56 -5 -56 -4 0 -6 -6
-3 -14 8 -20 -12 -29 -33 -16 -15 9 -14 10 6 4 16 -4 21 -3 16 5 -4 7 -1 19 7
28 12 15 10 16 -17 9 -22 -5 -26 -4 -15 4 13 8 13 11 1 19 -7 5 -10 14 -6 20
4 7 -1 23 -10 37 -9 13 -17 38 -18 54 -1 16 -8 32 -14 34 -7 3 -10 13 -6 22 4
12 3 15 -5 10 -7 -4 -12 -3 -12 3 0 6 15 7 35 4 22 -4 35 -2 35 5 0 6 -8 9
-17 5 -15 -5 -15 -3 1 9 11 9 27 13 37 11 9 -3 26 0 38 7 17 8 21 8 19 -2 -2
-8 6 -12 20 -11 12 2 22 -2 22 -7 0 -6 -11 -10 -24 -10 -14 0 -28 -4 -31 -10
-3 -5 -16 -10 -28 -10 -21 1 -21 1 3 15 21 12 22 14 6 15 -10 0 -29 -11 -41
-24 -21 -23 -21 -25 -4 -29 11 -3 19 -13 18 -24 0 -16 -1 -16 -9 2 -8 21 -8
20 -23 -27 -3 -9 1 -24 9 -35 13 -17 14 -16 9 12 -3 17 -2 24 1 18 8 -19 38
13 30 33 -4 10 -1 13 7 9 6 -4 4 0 -5 7 -15 13 -10 15 41 24 50 8 58 7 53 -5
-4 -10 1 -13 21 -9 16 3 25 1 24 -6 -1 -6 9 -10 23 -8 32 5 30 3 32 46 1 20 5
36 10 36 4 0 8 5 8 11 0 5 -6 7 -12 3 -7 -5 -24 -8 -38 -8 -14 -1 -24 -6 -23
-13 2 -8 -6 -9 -29 -3 -37 11 -43 16 -29 25 6 3 11 1 11 -4 0 -6 9 -11 21 -11
11 0 17 5 14 10 -3 6 -3 10 2 10 4 0 9 11 9 26 2 23 1 24 -11 7 -7 -10 -11
-21 -9 -25 2 -4 0 -9 -6 -13 -5 -3 -10 -1 -10 5 0 6 -10 8 -26 4 -24 -6 -25
-5 -12 15 7 11 16 21 21 21 4 0 5 -4 2 -10 -3 -5 1 -10 10 -10 9 0 15 6 12 13
-2 6 0 20 5 30 7 15 12 16 24 6 11 -9 14 -8 14 5 0 9 -6 16 -12 16 -8 1 -6 6
5 14 20 16 23 28 3 20 -7 -3 -16 2 -19 10 -4 11 -1 13 10 9 12 -5 15 -2 10 9
-3 9 1 24 8 35 9 12 10 24 4 34 -16 26 -9 33 11 11 11 -12 20 -27 20 -34 0 -9
3 -9 10 2 7 11 10 11 10 2 0 -9 5 -10 19 -3 14 8 22 7 31 -4 11 -13 9 -15 -6
-14 -38 4 -51 -2 -62 -26 -15 -33 -15 -55 -1 -55 6 0 9 9 6 19 -3 12 1 22 10
25 8 3 11 11 7 17 -4 8 -3 9 4 5 7 -4 12 -2 12 3 0 6 5 11 11 11 5 0 7 -5 3
-11 -4 -7 0 -9 14 -5 11 4 23 2 26 -3 4 -5 25 -9 47 -9 22 0 43 -2 46 -6 4 -3
-6 -6 -20 -6 -15 0 -27 -5 -27 -11 0 -7 12 -9 30 -7 17 3 34 0 37 -6 3 -6 3
-8 -1 -5 -4 4 -23 3 -43 -2 -38 -8 -88 10 -106 39 -7 10 -12 10 -23 1 -17 -14
-19 -40 -1 -36 7 1 12 -9 12 -25 -1 -32 3 -34 20 -12 17 25 161 25 159 1 -1
-13 6 -16 35 -14 35 2 84 38 62 45 -6 2 -11 11 -10 20 0 11 2 12 6 5 6 -15 33
-17 33 -3 0 6 7 10 15 10 12 0 13 -3 3 -19 -7 -11 -16 -17 -20 -15 -13 8 -9
-11 6 -32 8 -10 18 -16 22 -11 4 4 2 7 -4 7 -18 0 -14 24 7 47 20 21 20 21 -9
33 -16 6 -36 20 -46 31 -19 22 -41 26 -28 6 5 -7 1 -4 -8 6 -10 11 -18 25 -18
33 0 7 -19 28 -43 46 -43 33 -43 33 -30 66 14 34 28 45 18 13 -3 -11 -1 -22 4
-25 14 -9 21 7 14 32 -4 18 -11 21 -37 17 -17 -2 -35 -4 -39 -4 -12 -1 2 -21
14 -21 6 0 7 5 3 12 -4 7 -3 8 4 4 16 -10 15 -14 -8 -26 -16 -8 -20 -8 -18 2
2 10 -10 12 -47 9 -27 -1 -47 0 -44 4 4 3 21 7 38 7 27 1 29 3 18 17 -11 14
-10 14 6 2 15 -12 17 -11 17 3 0 20 -9 20 -57 2 -57 -21 -76 -18 -68 12 7 28
-13 95 -26 87 -13 -9 -11 -43 3 -47 7 -3 9 -11 3 -24 -8 -19 -8 -19 -13 1 -2
11 -10 27 -18 36 -14 15 -10 49 5 49 4 0 13 11 19 25 6 14 16 25 22 25 6 0 8
-6 4 -12 -5 -10 -4 -10 6 -1 19 17 7 25 -25 17 -15 -4 -30 -17 -35 -30 -5 -13
-14 -24 -20 -24 -12 0 -3 -48 12 -67 6 -7 8 -19 5 -27 -4 -9 3 -16 19 -20 14
-4 22 -11 19 -16 -3 -6 4 -10 17 -11 22 0 22 -1 3 -9 -33 -14 -65 -12 -65 5 0
8 6 15 13 15 7 0 5 5 -5 11 -9 5 -15 15 -12 22 2 7 -6 22 -20 34 -13 12 -30
37 -37 57 -7 20 -17 36 -21 36 -10 0 -5 29 10 58 16 27 28 22 37 -16 8 -38 32
-38 31 0 -1 23 -3 26 -12 13 -10 -14 -12 -13 -17 4 -3 11 0 22 7 25 6 2 4 5
-5 5 -9 1 -22 8 -29 16 -7 9 -15 13 -17 11 -9 -9 -63 16 -57 26 4 7 9 6 13 -1
4 -6 16 -12 26 -14 11 -2 35 -11 53 -20 23 -13 37 -15 51 -8 10 6 21 7 25 4 6
-6 9 13 4 20 -2 2 5 11 15 21 9 10 14 23 10 29 -4 7 -9 4 -14 -9 -6 -16 -8
-16 -8 -2 -1 9 4 20 9 23 18 11 10 26 -10 20 -15 -5 -18 -3 -14 8 3 8 -2 17
-11 21 -13 4 -14 10 -5 26 15 28 30 25 30 -7 1 -26 1 -27 15 -9 12 16 12 21 0
32 -19 19 -31 18 -56 -7 -26 -26 -32 -21 -14 15 14 26 14 27 -8 20 -12 -4 -24
-10 -27 -14 -10 -16 -65 -16 -55 0 6 10 -35 15 -80 10 -19 -1 -19 -1 -2 12 15
11 11 13 -32 12 -31 -1 -56 -8 -66 -18 -9 -9 -19 -16 -23 -16 -3 0 -1 5 6 12
7 7 12 16 12 22 0 5 -8 0 -17 -10 -14 -16 -33 -20 -93 -21 -49 -2 -77 2 -82
10 -6 9 -8 9 -8 -1 0 -8 9 -16 20 -19 11 -3 20 -9 20 -14 0 -13 -24 -11 -37 2
-6 6 -16 8 -22 5 -27 -17 -5 -24 68 -23 44 1 77 5 75 9 -3 4 13 8 35 8 23 0
41 5 41 10 0 6 9 10 20 10 11 0 20 5 20 10 0 6 5 10 11 10 5 0 8 -4 5 -9 -4
-5 0 -12 6 -14 11 -5 -25 -11 -44 -8 -4 0 -5 -6 -2 -13 4 -11 0 -13 -14 -9
-11 3 -29 0 -39 -7 -16 -10 -15 -10 7 -5 24 6 24 5 6 -9 -18 -15 -15 -21 7
-17 5 1 6 -3 2 -9 -8 -12 -45 5 -45 21 0 7 -7 8 -17 4 -25 -10 -82 -12 -77 -3
3 5 -4 8 -16 8 -12 0 -19 -4 -15 -9 6 -10 -48 -6 -65 4 -6 3 -10 3 -10 -2 0
-4 -24 -8 -54 -8 -30 0 -52 4 -48 9 3 6 -3 6 -14 2 -38 -15 -62 -13 -67 5 -3
10 -2 20 1 23 11 12 40 6 46 -9 4 -11 11 -13 28 -6 13 4 29 6 36 4 17 -7 14 8
-7 35 -15 17 -30 22 -63 22 -24 0 -49 5 -56 12 -9 9 -12 7 -12 -11z m355 -41
c3 -5 -1 -10 -9 -10 -9 0 -16 5 -16 10 0 6 4 10 9 10 6 0 13 -4 16 -10z m317
-26 c56 -29 80 -48 97 -82 19 -36 -11 -38 -81 -7 -53 24 -66 26 -92 17 -50
-18 -146 -27 -146 -13 0 13 67 83 95 99 32 18 72 14 127 -14z m-652 -14 c0
-17 5 -20 35 -17 36 4 36 4 16 -14 -22 -20 -36 -25 -26 -9 3 6 1 10 -4 10 -6
0 -11 -8 -12 -17 0 -11 -3 -13 -6 -5 -2 6 -13 12 -24 12 -24 0 -25 30 -1 31
10 0 12 3 4 6 -6 2 -10 9 -6 14 10 16 24 10 24 -11z m-60 -52 c0 6 5 12 11 12
6 0 8 -9 4 -22 -7 -23 -7 -23 9 -3 8 11 16 15 16 9 0 -20 -25 -35 -38 -22 -16
16 -42 2 -42 -22 0 -12 5 -18 10 -15 6 4 8 11 5 16 -4 5 -1 9 4 9 6 0 11 -5
11 -11 0 -5 4 -7 10 -4 6 3 7 -1 4 -9 -3 -9 -11 -16 -18 -17 -6 0 -21 -2 -33
-5 l-23 -4 20 50 c11 28 20 54 20 57 0 4 7 -2 15 -13 8 -11 15 -14 15 -6z
m283 6 c-7 -18 17 -17 41 1 44 33 127 12 147 -37 10 -24 9 -35 -4 -63 -9 -19
-13 -37 -8 -39 10 -6 31 38 31 64 0 29 26 24 63 -10 18 -17 48 -41 67 -53 19
-13 37 -31 39 -42 2 -10 14 -27 27 -38 32 -25 22 -37 -30 -37 -27 0 -48 -6
-57 -16 -11 -13 -9 -14 17 -7 92 25 154 -11 154 -90 -1 -23 -7 -53 -15 -67
-24 -42 -17 -58 11 -25 l26 30 -5 -38 c-3 -20 -14 -50 -25 -65 -11 -15 -25
-44 -33 -64 -7 -21 -16 -38 -20 -38 -3 0 -24 -12 -45 -26 -44 -30 -139 -57
-171 -49 -13 3 -29 19 -38 35 -8 16 -31 37 -50 46 -21 10 -42 30 -50 48 -20
44 -59 84 -86 88 -16 2 -25 11 -27 25 -2 12 -13 23 -26 27 -14 3 -26 16 -30
30 -3 14 -16 26 -31 30 -16 4 -25 13 -25 26 0 11 -4 20 -10 20 -5 0 -10 -14
-10 -30 0 -30 0 -30 -24 -15 -20 14 -24 22 -19 50 5 30 1 39 -31 71 -44 44
-56 97 -27 129 10 11 21 33 25 48 5 20 17 33 44 44 20 8 46 23 58 32 29 22
155 26 147 5z m362 -44 c-4 -6 8 -15 25 -22 22 -7 28 -14 21 -21 -14 -14 -14
-27 0 -27 5 0 7 5 4 10 -3 6 -4 10 -1 10 2 0 11 3 20 6 9 3 16 1 16 -6 0 -6
-5 -8 -11 -4 -8 4 -9 -1 -4 -17 5 -19 4 -21 -5 -9 -9 12 -11 10 -7 -12 3 -17
-2 -33 -11 -40 -13 -11 -15 -9 -9 20 4 21 3 31 -3 27 -6 -4 -24 5 -41 19 -17
15 -36 23 -42 19 -7 -4 -8 0 -4 11 4 10 7 20 7 22 0 2 5 4 12 4 6 0 8 -3 5 -7
-9 -9 23 -44 34 -37 5 3 9 -2 9 -10 0 -9 3 -16 8 -16 4 0 7 11 7 24 0 19 -3
22 -16 15 -12 -6 -21 -4 -29 6 -9 11 -9 15 -1 15 6 0 10 3 10 8 -2 12 1 22 7
22 3 0 2 -5 -1 -10z m-60 -10 c3 -5 1 -10 -4 -10 -6 0 -11 5 -11 10 0 6 2 10
4 10 3 0 8 -4 11 -10z m-567 -213 c33 -35 33 -68 0 -84 -23 -12 -32 -11 -65 4
-45 22 -51 40 -23 76 26 33 59 35 88 4z m-268 -82 c0 -8 -4 -15 -10 -15 -5 0
-7 7 -4 15 4 8 8 15 10 15 2 0 4 -7 4 -15z m-420 -25 c8 -5 11 -10 5 -10 -5 0
-17 5 -25 10 -8 5 -10 10 -5 10 6 0 17 -5 25 -10z m257 -6 c-3 -3 -12 -4 -19
-1 -8 3 -5 6 6 6 11 1 17 -2 13 -5z m226 -13 c4 -16 -2 -19 -40 -24 -24 -2
-52 -12 -62 -21 -10 -9 -20 -14 -22 -11 -3 2 -5 -5 -6 -15 -2 -26 15 -25 43 1
16 15 36 21 77 22 48 1 59 -3 78 -23 24 -29 39 -63 39 -91 0 -19 -2 -19 -33 5
-42 32 -113 36 -148 7 -19 -15 -24 -29 -24 -74 -1 -31 2 -54 7 -51 4 3 8 1 8
-3 0 -5 14 -17 30 -26 41 -25 105 -24 139 0 22 17 27 31 35 95 11 91 4 123
-33 157 l-29 27 26 2 c30 2 42 -12 42 -50 0 -32 31 -53 65 -44 18 5 26 15 30
44 4 20 7 42 8 48 2 12 139 -67 144 -83 2 -6 -5 -13 -16 -16 -11 -3 -26 -17
-32 -31 -10 -22 -9 -29 7 -47 15 -17 27 -20 57 -16 47 6 67 -12 67 -61 l0 -36
-17 24 c-9 14 -26 32 -37 40 -23 17 -138 42 -130 29 3 -5 -1 -9 -9 -9 -8 0
-28 -12 -45 -27 -16 -16 -38 -33 -48 -39 -26 -15 -38 -54 -30 -97 9 -50 63
-87 127 -87 47 0 68 14 83 54 9 27 -11 93 -34 109 -11 8 -17 16 -14 19 3 3 -1
6 -8 5 -7 0 -29 1 -48 2 l-35 2 24 19 c16 14 38 20 75 20 46 0 56 -4 83 -32
51 -53 66 -118 41 -173 -6 -14 -8 -28 -4 -33 14 -13 36 31 36 70 0 37 1 38 28
32 15 -4 28 -7 29 -8 3 -2 -40 -151 -49 -170 -15 -29 7 -44 31 -22 11 10 28
16 38 14 16 -3 14 -7 -11 -28 -52 -46 -74 -65 -117 -103 -23 -21 -56 -45 -72
-54 -27 -14 -31 -14 -39 1 -25 44 -113 56 -208 26 -29 -8 -41 -7 -67 7 -27 15
-39 15 -75 6 -31 -8 -48 -8 -63 0 -11 6 -51 12 -90 13 -38 1 -80 5 -92 9 -21
7 -20 8 13 37 64 56 82 124 45 169 -15 19 -28 24 -63 23 -76 -1 -178 -86 -178
-147 0 -15 -3 -27 -8 -27 -20 0 -126 117 -154 172 -34 64 -32 192 3 265 14 29
30 49 34 45 5 -4 6 0 2 10 -6 18 25 52 38 41 4 -5 5 -3 1 4 -3 6 1 18 9 25 9
7 21 18 28 24 8 7 33 22 57 34 36 18 56 21 113 18 64 -4 72 -6 100 -38 18 -20
41 -35 54 -35 12 -1 20 1 18 3 -8 8 68 62 94 68 14 3 35 9 46 14 29 13 32 12
38 -9z m-513 -6 c-7 -8 -17 -15 -23 -15 -6 0 -2 7 9 15 25 19 30 19 14 0z
m1720 -32 c44 -28 66 -50 85 -87 25 -49 33 -96 17 -96 -5 0 -14 11 -22 24 -28
53 -125 117 -213 141 -101 27 -111 48 -27 58 63 8 100 -1 160 -40z m-851 21
c13 -12 -8 -10 -29 2 l-25 15 25 -7 c14 -3 27 -8 29 -10z m1020 -162 c-1 -15
-2 -15 -6 1 -2 9 -9 14 -15 11 -7 -4 -8 -2 -4 5 10 15 26 4 25 -17z m-1354
-52 c0 -22 -29 -18 -33 3 -3 14 1 18 15 15 10 -2 18 -10 18 -18z m582 -43 c30
-30 36 -100 9 -105 -23 -5 -66 17 -66 33 0 6 -11 22 -24 34 -24 23 -25 47 -2
64 17 11 59 -2 83 -26z m98 -107 c18 -35 11 -58 -12 -39 -10 9 -20 10 -31 3
-9 -6 -30 -7 -47 -4 -31 7 -28 10 23 26 8 2 16 13 19 24 8 29 30 24 48 -10z
m-445 5 c13 -16 6 -35 -15 -35 -18 0 -28 17 -21 35 7 19 20 19 36 0z m400 -75
c7 12 12 12 22 2 14 -14 48 -16 48 -2 0 6 5 10 10 10 16 0 12 -36 -5 -50 -9
-7 -13 -20 -10 -27 4 -11 -1 -13 -23 -9 -15 3 -38 -1 -52 -8 -21 -12 -29 -12
-55 1 -52 27 -74 70 -30 59 18 -5 27 -1 35 14 9 17 14 18 31 7 16 -10 21 -9
29 3z m317 -57 c-3 -10 -5 -2 -5 17 0 19 2 27 5 18 2 -10 2 -26 0 -35z m-202
-13 c-3 -5 -13 -10 -21 -10 -8 0 -12 5 -9 10 3 6 13 10 21 10 8 0 12 -4 9 -10z
m-1435 -55 c0 -5 -5 -3 -10 5 -5 8 -10 20 -10 25 0 6 5 3 10 -5 5 -8 10 -19
10 -25z m1404 15 c50 -18 26 -80 -36 -95 -25 -6 -28 -4 -28 18 0 14 -4 37 -9
50 -6 14 -7 28 -4 31 9 9 49 7 77 -4z m192 -79 c-6 -40 -43 -83 -65 -77 -9 3
-35 10 -59 16 -51 13 -51 34 0 36 56 3 88 29 88 73 l0 36 21 -25 c14 -18 18
-35 15 -59z m-65 26 c-10 -9 -11 -8 -5 6 3 10 9 15 12 12 3 -3 0 -11 -7 -18z
m-231 -97 c-14 -64 -44 -110 -70 -110 -32 0 -33 19 -1 68 17 26 37 67 45 90 9
24 19 48 23 55 14 21 16 -45 3 -103z m-1157 44 c-3 -9 0 -12 8 -9 9 3 14 -3
15 -20 1 -18 -3 -25 -16 -25 -10 0 -21 -6 -24 -12 -3 -7 -4 -4 -3 7 2 14 9 19
22 17 20 -4 20 -3 0 11 -10 8 -20 26 -21 41 -1 20 2 23 12 15 7 -6 10 -17 7
-25z m-43 -34 c0 -5 -4 -10 -10 -10 -5 0 -10 5 -10 10 0 6 5 10 10 10 6 0 10
-4 10 -10z m202 -16 c26 1 44 -2 41 -7 -3 -4 -11 -6 -19 -3 -8 3 -14 1 -14 -3
0 -5 -7 -12 -16 -15 -9 -3 -12 -2 -9 5 4 6 1 10 -6 8 -25 -3 -64 3 -51 8 6 2
9 10 5 16 -5 9 -3 9 8 1 8 -6 35 -11 61 -10z m1104 -20 c-30 -21 -42 -17 -15
5 13 11 26 17 29 14 3 -2 -4 -11 -14 -19z m51 -21 c-8 -7 -37 9 -31 19 3 5 12
4 20 -3 8 -6 13 -14 11 -16z m-560 11 c-3 -3 -12 -4 -19 -1 -8 3 -5 6 6 6 11
1 17 -2 13 -5z m-630 -36 c-3 -8 -6 -5 -6 6 -1 11 2 17 5 13 3 -3 4 -12 1 -19z
m238 13 c-3 -6 4 -9 15 -8 11 1 20 5 20 9 0 12 28 10 36 -3 3 -6 1 -16 -6 -22
-6 -7 -11 -7 -10 -2 4 21 0 25 -14 13 -8 -7 -11 -17 -8 -22 3 -5 -5 -2 -18 7
-15 10 -35 14 -60 11 -21 -3 -41 0 -45 5 -3 6 7 9 27 6 18 -2 40 0 48 5 19 12
23 12 15 1z m120 -9 c-3 -3 -11 0 -18 7 -9 10 -8 11 6 5 10 -3 15 -9 12 -12z
m70 8 c-3 -5 -12 -10 -18 -10 -7 0 -6 4 3 10 19 12 23 12 15 0z m143 1 c12 0
22 -5 22 -10 0 -11 -99 -6 -111 6 -7 7 23 9 89 4z m74 -7 c-13 -9 -26 -13 -30
-9 -8 8 17 25 38 25 9 0 6 -6 -8 -16z m-181 -11 c13 -16 12 -17 -3 -4 -10 7
-18 15 -18 17 0 8 8 3 21 -13z m-593 -67 c-45 -57 -68 -69 -68 -36 0 11 -4 20
-10 20 -5 0 -10 5 -10 12 0 6 3 8 7 5 3 -4 11 0 17 8 6 8 24 16 40 19 16 3 34
10 40 16 5 5 14 10 18 10 5 0 -11 -24 -34 -54z m135 35 c3 -14 0 -19 -13 -18
-14 1 -16 4 -6 19 13 22 13 22 19 -1z m413 -1 c9 0 12 -5 9 -10 -4 -7 -12 -7
-25 0 -24 13 -33 13 -25 0 3 -5 1 -10 -4 -10 -6 0 -11 4 -11 8 0 15 13 23 28
17 7 -3 20 -5 28 -5z m199 -10 c3 -6 -1 -7 -9 -4 -18 7 -21 14 -7 14 6 0 13
-4 16 -10z m-481 -15 c4 -12 17 -15 53 -11 28 3 40 2 29 -3 -14 -5 -16 -10 -7
-15 6 -4 18 -2 26 4 9 7 15 8 15 2 0 -18 -32 -23 -56 -7 -15 10 -24 11 -26 3
-2 -6 -17 1 -33 15 -17 15 -25 27 -19 27 7 0 15 -7 18 -15z m456 -9 c-10 -13
-40 -12 -40 1 0 3 7 3 15 -1 8 -3 15 -1 15 4 0 6 5 10 11 10 8 0 8 -4 -1 -14z
m-661 -18 c-5 -10 -12 -18 -14 -18 -3 0 -5 8 -5 18 0 10 7 19 14 19 11 0 13
-5 5 -19z m174 1 c-8 -8 -16 -8 -30 0 -16 11 -16 11 5 6 14 -4 22 -2 22 6 0 7
3 9 7 6 4 -4 2 -12 -4 -18z m177 11 c0 -5 -5 -10 -11 -10 -5 0 -7 5 -4 10 3 6
8 10 11 10 2 0 4 -4 4 -10z m90 5 c0 -7 -30 -13 -34 -7 -3 4 4 9 15 9 10 1 19
0 19 -2z m174 -11 c9 -3 16 -10 16 -16 0 -5 -4 -7 -9 -4 -13 8 -42 -4 -35 -15
3 -5 1 -9 -5 -9 -5 0 -13 5 -16 10 -3 6 0 10 7 10 10 0 9 3 -2 11 -12 8 -10 9
9 4 16 -5 21 -4 17 4 -8 13 -4 14 18 5z m-647 -37 c2 -26 0 -29 -8 -14 -6 10
-8 25 -5 33 8 21 11 17 13 -19z m379 8 c-4 -10 1 -15 17 -16 12 0 16 -3 9 -6
-21 -8 -42 5 -36 22 3 8 8 15 11 15 3 0 3 -7 -1 -15z m-269 -54 c2 -27 -1 -52
-7 -56 -5 -3 -10 0 -11 7 0 7 -1 31 -3 53 -4 76 15 73 21 -4z m403 39 c0 -5 8
-10 17 -10 9 0 14 -2 11 -5 -9 -9 -58 6 -52 16 7 12 24 11 24 -1z m-529 -21
c8 -17 8 -20 -1 -14 -9 5 -10 1 -5 -16 7 -24 7 -24 -10 -4 l-17 20 7 -20 c5
-17 4 -18 -7 -7 -11 11 -10 16 6 27 10 8 15 18 11 24 -3 6 -4 11 -1 11 3 0 10
-10 17 -21z m294 10 c11 -16 1 -19 -13 -3 -7 8 -8 14 -3 14 5 0 13 -5 16 -11z
m673 -49 c19 0 23 -3 13 -9 -15 -9 -48 -4 -57 10 -3 5 -2 15 3 22 5 9 8 7 11
-5 2 -12 13 -18 30 -18z m-998 -41 c0 -13 -18 -20 -25 -9 -3 5 -1 10 5 10 8 0
8 6 0 23 -11 21 -10 21 4 3 9 -11 16 -23 16 -27z m924 25 c3 -8 2 -12 -4 -9
-6 3 -10 10 -10 16 0 14 7 11 14 -7z m-868 -30 c-4 -9 -9 -15 -11 -12 -3 3 -3
13 1 22 4 9 9 15 11 12 3 -3 3 -13 -1 -22z m964 16 c0 -5 -4 -10 -10 -10 -5 0
-10 5 -10 10 0 6 5 10 10 10 6 0 10 -4 10 -10z m-851 -47 c0 -16 -3 -22 -6
-15 -2 6 -9 10 -14 6 -11 -6 -11 -2 -3 20 10 26 24 18 23 -11z m-65 -8 c2 -5
-7 -10 -20 -10 -13 0 -24 4 -24 8 0 5 -5 5 -12 1 -6 -4 -8 -3 -5 3 8 13 55 12
61 -2z m46 -30 c0 -8 -2 -15 -4 -15 -2 0 -6 7 -10 15 -3 8 -1 15 4 15 6 0 10
-7 10 -15z m765 5 c3 -5 1 -10 -4 -10 -6 0 -11 5 -11 10 0 6 2 10 4 10 3 0 8
-4 11 -10z m-35 -24 c0 -8 -4 -17 -8 -20 -4 -2 -8 4 -8 15 0 10 4 19 8 19 4 0
8 -6 8 -14z m30 0 c0 -3 -4 -8 -10 -11 -5 -3 -10 -1 -10 4 0 6 5 11 10 11 6 0
10 -2 10 -4z m-850 -41 c14 -19 14 -19 -2 -6 -10 7 -18 18 -18 24 0 6 1 8 3 6
1 -2 9 -13 17 -24z m132 -65 c29 -11 91 -25 138 -31 47 -6 100 -15 119 -21 45
-14 248 -13 284 1 16 6 41 11 55 11 27 0 28 -2 46 -103 10 -57 17 -111 15
-122 -2 -11 -17 -22 -34 -27 -69 -20 -365 -8 -404 16 -6 4 -11 32 -11 64 0 65
-9 104 -20 97 -5 -3 -30 2 -55 11 -61 20 -71 10 -14 -15 l44 -20 -37 0 c-58
-1 -55 -20 4 -23 41 -2 54 -7 56 -20 6 -32 -41 -40 -152 -27 -83 10 -109 17
-143 41 -24 16 -43 35 -43 43 0 8 9 37 20 65 11 28 20 61 20 74 0 32 10 38 36
21 12 -8 47 -24 76 -35z m-148 -16 c3 -8 2 -12 -4 -9 -6 3 -10 10 -10 16 0 14
7 11 14 -7z m-37 -131 c-3 -10 -5 -2 -5 17 0 19 2 27 5 18 2 -10 2 -26 0 -35z
m43 -53 c-12 -7 -8 -10 15 -10 22 0 26 -3 16 -9 -9 -6 -22 -6 -33 0 -10 6 -23
7 -28 4 -6 -3 -10 -2 -10 4 0 5 8 12 18 14 30 8 37 7 22 -3z m228 -38 c9 -7 8
-13 -8 -27 -19 -17 -21 -17 -40 0 -11 10 -20 22 -20 27 0 10 51 10 68 0z m-12
-103 c-10 -44 -30 -79 -39 -68 -3 2 -7 31 -10 64 l-6 61 33 -4 33 -4 -11 -49z
m-77 -12 c0 -21 -1 -21 -9 -2 -12 28 -12 37 0 30 6 -3 10 -16 9 -28z m525 -28
c-24 -26 -43 -24 -54 7 -12 30 -13 54 -2 39 8 -12 44 -16 37 -5 -3 5 3 10 12
12 25 5 29 -29 7 -53z m-334 44 c0 -5 -5 -15 -10 -23 -8 -12 -10 -11 -10 8 0
12 5 22 10 22 6 0 10 -3 10 -7z m406 -36 c16 6 18 -21 3 -52 -7 -16 -8 -14 -4
9 5 25 4 28 -8 17 -18 -15 -30 0 -20 25 4 10 8 13 10 7 3 -7 11 -9 19 -6z
m-478 -18 c9 -13 9 -16 -3 -16 -8 0 -15 9 -15 20 0 11 1 18 3 16 1 -2 8 -11
15 -20z m-77 -47 c2 2 1 -1 -3 -6 -7 -9 -67 -24 -131 -33 -25 -3 -43 -1 -50 7
-9 10 -7 12 11 7 12 -3 22 -1 22 5 0 5 4 7 9 3 5 -3 12 -1 16 5 3 5 14 10 23
10 9 0 28 6 42 14 21 11 28 11 41 -1 9 -7 18 -12 20 -11z m488 -11 c0 -20 -4
-44 -8 -54 -6 -18 -7 -18 -23 0 -9 10 -19 34 -23 53 -6 34 -5 35 24 36 29 1
31 -1 30 -35z m68 -9 c18 -18 17 -26 -7 -47 -18 -17 -20 -17 -14 -2 3 9 2 17
-3 17 -5 0 -7 17 -4 38 2 20 6 30 9 22 3 -8 11 -21 19 -28z m-147 4 c0 -3 -4
-8 -10 -11 -5 -3 -10 -1 -10 4 0 6 5 11 10 11 6 0 10 -2 10 -4z m-403 -41 c0
-10 -6 -14 -14 -10 -8 3 -24 6 -36 6 -14 1 -9 4 13 9 19 4 35 8 36 9 0 0 1 -6
1 -14z m636 -73 c5 -25 4 -26 -9 -7 -17 23 -30 25 -59 12 -11 -5 -17 -6 -13
-2 4 4 0 14 -10 22 -9 8 -11 12 -4 8 6 -3 12 0 12 7 0 8 5 19 12 26 16 16 64
-29 71 -66z m-162 18 c4 0 11 5 14 10 9 15 27 1 21 -17 -4 -9 -2 -11 6 -7 8 5
9 2 5 -9 -3 -9 -3 -16 1 -15 4 1 18 -4 31 -11 19 -10 21 -15 10 -22 -11 -7
-11 -9 -1 -9 19 0 39 -23 34 -38 -6 -18 -28 -15 -70 12 -37 23 -71 56 -58 56
4 0 -5 17 -19 37 -31 46 -32 61 -3 33 12 -11 25 -20 29 -20z m-464 24 c-3 -3
-12 -4 -19 -1 -8 3 -5 6 6 6 11 1 17 -2 13 -5z m599 -59 c-3 -8 -1 -15 4 -15
6 0 10 -5 10 -11 0 -8 -4 -8 -14 1 -13 10 -12 40 1 40 3 0 3 -7 -1 -15z"/>
<path d="M1238 2343 c7 -3 16 -2 19 1 4 3 -2 6 -13 5 -11 0 -14 -3 -6 -6z"/>
<path d="M1350 2230 c-13 -9 -13 -10 0 -10 8 0 22 5 30 10 13 9 13 10 0 10 -8
0 -22 -5 -30 -10z"/>
<path d="M1537 2203 c-13 -12 -7 -23 13 -23 11 0 20 7 20 15 0 15 -21 21 -33
8z"/>
<path d="M1374 2185 c-10 -8 -14 -15 -7 -15 19 0 43 11 43 21 0 13 -14 11 -36
-6z"/>
<path d="M1405 2140 c-3 -5 3 -10 14 -10 11 0 23 5 26 10 3 6 -3 10 -14 10
-11 0 -23 -4 -26 -10z"/>
<path d="M1520 2070 c0 -5 5 -10 10 -10 6 0 31 -21 56 -46 24 -26 47 -44 50
-41 9 8 -26 70 -50 89 -23 19 -66 24 -66 8z"/>
<path d="M1440 2028 c0 -16 17 -36 55 -65 62 -48 75 -52 75 -23 0 11 -4 20 -8
20 -5 0 -29 20 -54 45 -51 50 -68 56 -68 23z"/>
<path d="M1790 1904 c0 -10 7 -14 22 -12 32 5 35 28 4 28 -17 0 -26 -5 -26
-16z"/>
<path d="M1705 1880 c-19 -8 -19 -9 3 -9 12 -1 22 4 22 9 0 6 -1 10 -2 9 -2 0
-12 -4 -23 -9z"/>
<path d="M1728 1833 c6 -2 18 -2 25 0 6 3 1 5 -13 5 -14 0 -19 -2 -12 -5z"/>
<path d="M1765 1790 c-18 -8 -17 -9 8 -9 15 -1 27 4 27 9 0 12 -8 12 -35 0z"/>
<path d="M440 1080 c0 -5 7 -10 15 -10 8 0 15 5 15 10 0 6 -7 10 -15 10 -8 0
-15 -4 -15 -10z"/>
<path d="M1271 194 c-1 -18 4 -21 28 -20 28 1 29 2 14 18 -17 19 -28 24 -18 9
3 -5 1 -12 -4 -15 -5 -4 -12 2 -14 11 -4 14 -5 14 -6 -3z"/>
<path d="M1845 2460 c3 -5 14 -10 23 -10 15 0 15 2 2 10 -20 13 -33 13 -25 0z"/>
<path d="M1935 2460 c3 -5 14 -10 23 -10 15 0 15 2 2 10 -20 13 -33 13 -25 0z"/>
<path d="M1998 2463 c6 -2 18 -2 25 0 6 3 1 5 -13 5 -14 0 -19 -2 -12 -5z"/>
<path d="M2051 2454 c0 -11 3 -14 6 -6 3 7 2 16 -1 19 -3 4 -6 -2 -5 -13z"/>
<path d="M1380 2450 c0 -12 49 -60 61 -60 5 0 6 7 3 15 -4 11 -2 13 9 9 8 -3
18 -1 22 5 3 7 -3 11 -16 11 -18 0 -19 2 -9 15 15 18 -1 20 -18 3 -10 -10 -17
-10 -32 0 -13 8 -20 8 -20 2z"/>
<path d="M1895 2450 c3 -5 10 -10 16 -10 5 0 9 5 9 10 0 6 -7 10 -16 10 -8 0
-12 -4 -9 -10z"/>
<path d="M2065 2380 c-3 -5 -3 -16 2 -22 4 -7 8 -28 8 -45 1 -36 15 -59 15
-25 0 11 6 23 13 25 7 3 5 6 -5 6 -18 1 -26 21 -9 21 6 0 13 -4 16 -10 3 -5
18 -10 33 -9 24 0 25 1 7 10 -11 5 -33 13 -49 19 -23 9 -26 13 -16 25 8 10 9
15 2 15 -6 0 -14 -4 -17 -10z"/>
<path d="M2125 2360 c3 -5 13 -10 21 -10 8 0 12 5 9 10 -3 6 -13 10 -21 10 -8
0 -12 -4 -9 -10z"/>
<path d="M2110 2290 c0 -11 4 -20 9 -20 5 0 11 9 14 20 3 13 0 20 -9 20 -8 0
-14 -9 -14 -20z"/>
<path d="M2066 2256 c6 -15 4 -17 -6 -11 -9 6 -11 4 -5 -4 5 -9 10 -10 18 -2
8 8 7 14 -2 24 -10 10 -11 8 -5 -7z"/>
<path d="M1937 2181 c-4 -17 -3 -21 5 -13 5 5 8 16 6 23 -3 8 -7 3 -11 -10z"/>
<path d="M1946 2152 c-4 -6 -4 -23 0 -38 7 -27 7 -27 15 -6 6 15 13 20 25 15
12 -4 15 -2 12 8 -3 8 -11 13 -18 11 -7 -2 -16 2 -20 9 -5 8 -10 8 -14 1z"/>
<path d="M1087 2083 c-4 -3 -7 -11 -7 -17 0 -6 5 -5 12 2 6 6 9 14 7 17 -3 3
-9 2 -12 -2z"/>
<path d="M1965 2081 c-3 -5 -1 -12 5 -16 5 -3 10 1 10 9 0 18 -6 21 -15 7z"/>
<path d="M596 2061 c-4 -6 -3 -11 2 -11 5 0 9 -13 10 -30 1 -43 9 -50 50 -49
l37 2 -35 6 c-31 5 -35 9 -37 40 -1 37 -16 60 -27 42z"/>
<path d="M730 2060 c0 -5 -7 -7 -15 -4 -18 7 -20 -10 -2 -23 23 -19 44 -11 39
14 -4 22 -22 33 -22 13z"/>
<path d="M770 2054 c0 -8 5 -12 10 -9 6 3 10 10 10 16 0 5 -4 9 -10 9 -5 0
-10 -7 -10 -16z"/>
<path d="M480 2044 c0 -8 5 -12 10 -9 6 3 10 10 10 16 0 5 -4 9 -10 9 -5 0
-10 -7 -10 -16z"/>
<path d="M2168 2053 c7 -3 16 -2 19 1 4 3 -2 6 -13 5 -11 0 -14 -3 -6 -6z"/>
<path d="M2101 2020 c-20 -17 -21 -20 -5 -17 25 3 44 16 44 28 0 14 -13 10
-39 -11z"/>
<path d="M2220 2030 c0 -5 5 -10 10 -10 6 0 10 5 10 10 0 6 -4 10 -10 10 -5 0
-10 -4 -10 -10z"/>
<path d="M656 2001 c-6 -10 102 -26 112 -17 3 3 -9 6 -26 6 -17 0 -34 5 -37
10 -8 12 -42 13 -49 1z"/>
<path d="M787 1996 c-3 -8 -2 -18 4 -22 16 -9 22 2 11 21 -8 15 -10 16 -15 1z"/>
<path d="M560 1990 c0 -5 4 -10 9 -10 6 0 13 5 16 10 3 6 -1 10 -9 10 -9 0
-16 -4 -16 -10z"/>
<path d="M2295 1970 c9 -27 -11 -61 -32 -53 -27 11 -5 -15 28 -33 17 -8 34
-25 39 -37 7 -17 9 -18 9 -4 1 9 6 17 12 17 6 0 9 -6 7 -12 -3 -7 4 -22 14
-33 19 -20 20 -20 14 10 -6 27 -5 28 5 8 10 -18 15 -20 35 -11 13 6 24 18 24
27 -1 13 -3 12 -15 -3 -11 -15 -18 -17 -27 -8 -8 8 -8 15 3 28 9 12 10 15 2
10 -12 -7 -18 11 -14 37 1 5 -3 6 -9 2 -5 -3 -10 -18 -11 -33 l-1 -27 -7 25
c-7 24 -7 24 -18 5 -6 -11 -15 -16 -20 -12 -4 5 3 18 17 29 l25 21 -25 -8
c-22 -7 -23 -6 -11 9 21 25 1 19 -24 -8 -27 -29 -41 -23 -20 8 17 24 20 66 4
66 -6 0 -8 -8 -4 -20z m29 -75 c-4 -8 -8 -15 -10 -15 -2 0 -4 7 -4 15 0 8 4
15 10 15 5 0 7 -7 4 -15z"/>
<path d="M2331 1987 c2 -1 13 -9 24 -17 19 -14 19 -14 6 3 -7 9 -18 17 -24 17
-6 0 -8 -1 -6 -3z"/>
<path d="M2385 1973 c4 -14 2 -23 -4 -23 -6 0 -11 -4 -11 -10 0 -18 19 -10 25
11 4 12 2 26 -5 33 -10 8 -11 6 -5 -11z"/>
<path d="M370 1967 c0 -17 20 -46 20 -29 0 9 5 10 19 2 23 -12 41 -13 41 -2 0
4 -18 15 -40 24 -28 11 -40 13 -40 5z"/>
<path d="M850 1959 c0 -5 5 -7 10 -4 6 3 10 8 10 11 0 2 -4 4 -10 4 -5 0 -10
-5 -10 -11z"/>
<path d="M2450 1890 c0 -5 5 -10 10 -10 6 0 10 5 10 10 0 6 -4 10 -10 10 -5 0
-10 -4 -10 -10z"/>
<path d="M358 1868 c-10 -10 -18 -26 -19 -35 -1 -12 -4 -10 -9 7 -7 22 -8 21
-9 -12 -1 -45 11 -49 28 -10 8 15 18 35 23 45 13 25 7 28 -14 5z"/>
<path d="M390 1880 c0 -5 5 -10 10 -10 6 0 10 5 10 10 0 6 -4 10 -10 10 -5 0
-10 -4 -10 -10z"/>
<path d="M287 1802 c-3 -16 -13 -37 -22 -45 -17 -18 -20 -37 -5 -37 6 0 10 7
10 15 0 8 4 15 9 15 9 0 25 69 18 76 -2 3 -7 -8 -10 -24z"/>
<path d="M2450 1790 c0 -5 5 -10 10 -10 6 0 10 5 10 10 0 6 -4 10 -10 10 -5 0
-10 -4 -10 -10z"/>
<path d="M2025 1780 c-3 -5 -2 -10 4 -10 5 0 13 5 16 10 3 6 2 10 -4 10 -5 0
-13 -4 -16 -10z"/>
<path d="M300 1720 c20 -13 33 -13 25 0 -3 6 -14 10 -23 10 -15 0 -15 -2 -2
-10z"/>
<path d="M2442 1710 c-7 -11 -10 -20 -6 -20 7 0 34 27 34 34 0 13 -16 5 -28
-14z"/>
<path d="M2030 1684 c0 -8 5 -12 10 -9 6 3 10 1 10 -4 0 -6 6 -11 14 -11 9 0
12 7 9 20 -6 23 -43 27 -43 4z"/>
<path d="M2256 1693 c-4 -4 -24 -6 -44 -4 -46 4 -40 -4 10 -12 26 -4 38 -2 42
9 6 15 3 18 -8 7z"/>
<path d="M277 1648 c8 -57 13 -61 13 -10 0 22 -4 43 -9 46 -5 4 -7 -12 -4 -36z"/>
<path d="M2364 1678 c-4 -7 -3 -8 4 -4 7 4 12 1 12 -8 0 -16 -23 -20 -102 -16
-28 1 -38 -3 -38 -13 0 -21 27 -29 52 -16 11 6 31 8 44 5 28 -7 67 25 58 49
-7 18 -20 19 -30 3z"/>
<path d="M186 1661 c-3 -5 1 -22 9 -39 12 -23 13 -36 5 -58 -12 -29 -7 -54 10
-54 6 0 10 29 10 70 0 43 -4 70 -11 70 -5 0 -7 5 -4 10 3 6 2 10 -4 10 -5 0
-12 -4 -15 -9z"/>
<path d="M240 1630 c0 -22 5 -40 10 -40 6 0 10 18 10 40 0 22 -4 40 -10 40 -5
0 -10 -18 -10 -40z"/>
<path d="M2325 1600 c-17 -7 -14 -9 13 -9 20 -1 31 3 27 9 -7 12 -13 12 -40 0z"/>
<path d="M2258 1593 c7 -3 16 -2 19 1 4 3 -2 6 -13 5 -11 0 -14 -3 -6 -6z"/>
<path d="M245 1570 c3 -5 10 -10 16 -10 5 0 9 5 9 10 0 6 -7 10 -16 10 -8 0
-12 -4 -9 -10z"/>
<path d="M280 1535 c0 -14 4 -25 9 -25 4 0 6 11 3 25 -2 14 -6 25 -8 25 -2 0
-4 -11 -4 -25z"/>
<path d="M261 1550 c-2 -3 -4 -12 -6 -21 -1 -9 -6 -32 -10 -50 l-6 -34 16 30
c9 16 14 41 12 55 -2 14 -5 23 -6 20z"/>
<path d="M1871 1478 c-7 -22 -19 -48 -27 -55 -8 -8 -12 -18 -9 -23 3 -5 0 -10
-6 -12 -7 -2 -4 -9 7 -18 16 -14 17 -13 12 13 -4 19 -1 30 8 34 8 3 14 15 15
27 0 19 1 19 11 -4 10 -22 12 -23 15 -6 3 10 0 23 -6 29 -14 14 -14 27 -1 27
6 0 10 -8 11 -17 0 -15 2 -15 8 2 5 12 3 24 -5 32 -18 19 -20 17 -33 -29z"/>
<path d="M1947 1483 c-10 -9 -9 -53 2 -53 6 0 11 60 5 60 0 0 -4 -3 -7 -7z"/>
<path d="M1916 1462 c-4 -13 -5 -26 -2 -29 10 -11 18 4 14 29 l-4 23 -8 -23z"/>
<path d="M310 1445 c0 -8 4 -15 8 -15 5 0 9 7 9 15 0 8 -4 15 -9 15 -4 0 -8
-7 -8 -15z"/>
<path d="M255 1430 c3 -5 11 -10 16 -10 6 0 7 5 4 10 -3 6 -11 10 -16 10 -6 0
-7 -4 -4 -10z"/>
<path d="M2030 1425 c0 -8 2 -15 4 -15 2 0 6 7 10 15 3 8 1 15 -4 15 -6 0 -10
-7 -10 -15z"/>
<path d="M240 1369 c0 -5 5 -7 10 -4 6 3 10 8 10 11 0 2 -4 4 -10 4 -5 0 -10
-5 -10 -11z"/>
<path d="M2045 1340 c-3 -5 -1 -10 4 -10 6 0 11 5 11 10 0 6 -2 10 -4 10 -3 0
-8 -4 -11 -10z"/>
<path d="M2020 1309 c0 -5 5 -7 10 -4 6 3 10 8 10 11 0 2 -4 4 -10 4 -5 0 -10
-5 -10 -11z"/>
<path d="M320 1290 c0 -5 5 -10 11 -10 5 0 7 5 4 10 -3 6 -8 10 -11 10 -2 0
-4 -4 -4 -10z"/>
<path d="M425 1280 c-3 -5 -2 -10 4 -10 5 0 13 5 16 10 3 6 2 10 -4 10 -5 0
-13 -4 -16 -10z"/>
<path d="M1999 1283 c-1 -4 -2 -24 -3 -43 -1 -28 -5 -36 -22 -38 -12 -2 -24
-12 -27 -23 -4 -13 -1 -18 6 -15 7 3 20 9 30 12 10 4 21 20 24 35 3 17 12 29
22 30 10 0 11 2 4 6 -7 2 -13 11 -13 18 0 15 -19 31 -21 18z"/>
<path d="M2050 1215 c0 -8 5 -15 10 -15 6 0 10 7 10 15 0 8 -4 15 -10 15 -5 0
-10 -7 -10 -15z"/>
<path d="M490 1171 c0 -6 5 -13 10 -16 6 -3 10 1 10 9 0 9 -4 16 -10 16 -5 0
-10 -4 -10 -9z"/>
<path d="M1980 1160 c0 -5 5 -10 10 -10 6 0 10 5 10 10 0 6 -4 10 -10 10 -5 0
-10 -4 -10 -10z"/>
<path d="M1740 1135 c7 -8 20 -15 29 -14 12 0 12 2 -4 10 -15 7 -11 8 17 4 20
-3 39 -1 43 5 4 6 -13 10 -46 10 -45 0 -50 -2 -39 -15z"/>
<path d="M1850 1141 c8 -6 10 -11 4 -11 -6 0 -11 -7 -11 -15 0 -17 6 -18 27
-5 8 5 11 10 5 10 -5 0 -3 5 5 10 9 6 10 10 3 10 -6 0 -20 3 -30 6 -15 5 -15
4 -3 -5z"/>
<path d="M1944 1142 c-22 -2 -34 -10 -37 -23 -3 -10 -13 -19 -22 -19 -15 0
-45 -22 -45 -34 0 -3 9 -10 20 -16 22 -12 63 7 56 25 -2 5 1 21 5 34 8 19 15
23 44 19 19 -2 35 -1 35 3 0 10 -22 15 -56 11z"/>
<path d="M1958 1113 c7 -3 16 -2 19 1 4 3 -2 6 -13 5 -11 0 -14 -3 -6 -6z"/>
<path d="M2028 1113 c7 -3 16 -2 19 1 4 3 -2 6 -13 5 -11 0 -14 -3 -6 -6z"/>
<path d="M325 990 c1 -27 -2 -47 -7 -44 -4 3 -8 -13 -8 -35 0 -23 4 -41 8 -41
5 0 8 14 7 30 -1 17 1 30 4 30 7 0 41 54 41 64 0 12 -29 -7 -34 -22 -2 -10 -2
-1 1 19 2 20 1 39 -4 42 -5 3 -9 -16 -8 -43z"/>
<path d="M1484 1001 c3 -19 26 -27 26 -9 0 10 3 9 10 -2 8 -13 10 -13 10 1 0
10 -10 19 -24 21 -17 4 -23 1 -22 -11z"/>
<path d="M369 957 c-9 -7 -14 -18 -11 -26 3 -8 0 -11 -7 -7 -6 4 -11 1 -11 -8
0 -10 6 -13 15 -10 8 4 15 14 15 24 0 10 6 20 13 23 6 2 10 7 7 10 -3 3 -12 0
-21 -6z"/>
<path d="M243 910 c0 -25 2 -35 4 -22 2 12 2 32 0 45 -2 12 -4 2 -4 -23z"/>
<path d="M263 910 c0 -25 2 -35 4 -22 2 12 2 32 0 45 -2 12 -4 2 -4 -23z"/>
<path d="M293 910 c0 -25 2 -35 4 -22 2 12 2 32 0 45 -2 12 -4 2 -4 -23z"/>
<path d="M1577 913 c-10 -9 -9 -41 1 -47 4 -2 9 9 10 25 2 30 0 34 -11 22z"/>
<path d="M466 781 c10 -10 23 -16 28 -13 5 3 1 11 -9 19 -28 20 -41 16 -19 -6z"/>
<path d="M403 770 c-3 -11 -9 -20 -14 -20 -5 0 -9 -5 -9 -11 0 -7 10 -5 25 5
23 15 26 15 31 1 8 -21 24 -19 24 3 0 39 -48 58 -57 22z"/>
<path d="M1350 736 c0 -8 7 -16 15 -20 8 -3 15 -1 15 4 0 6 -6 10 -12 11 -7 0
-4 4 7 9 19 8 19 9 -2 9 -13 1 -23 -5 -23 -13z"/>
<path d="M320 720 c0 -5 6 -10 14 -10 8 0 18 5 21 10 3 6 -3 10 -14 10 -12 0
-21 -4 -21 -10z"/>
<path d="M400 672 c0 -23 -4 -42 -10 -42 -15 0 -12 -29 4 -46 8 -8 17 -14 20
-14 10 0 6 38 -4 42 -6 2 -5 17 2 41 9 29 9 40 0 49 -9 9 -12 2 -12 -30z"/>
<path d="M323 590 c0 -25 2 -35 4 -22 2 12 2 32 0 45 -2 12 -4 2 -4 -23z"/>
<path d="M1433 553 c-15 -5 -17 -23 -4 -23 5 0 11 7 15 15 3 8 4 15 3 14 -1 0
-8 -3 -14 -6z"/>
<path d="M1417 400 c-3 -13 -4 -26 -2 -29 6 -6 34 30 35 44 0 6 -4 4 -9 -4 -7
-11 -9 -11 -13 0 -3 8 -7 3 -11 -11z"/>
<path d="M1375 380 c3 -5 8 -10 11 -10 2 0 4 5 4 10 0 6 -5 10 -11 10 -5 0 -7
-4 -4 -10z"/>
<path d="M973 363 c15 -2 27 -11 27 -19 0 -8 7 -14 15 -14 8 0 15 9 15 20 0
17 -6 20 -42 19 -30 -2 -35 -3 -15 -6z"/>
<path d="M1070 362 c0 -7 -7 -12 -15 -12 -8 0 -15 -4 -15 -8 0 -5 7 -9 15 -9
15 0 30 26 20 35 -3 3 -5 0 -5 -6z"/>
<path d="M568 343 c6 -2 18 -2 25 0 6 3 1 5 -13 5 -14 0 -19 -2 -12 -5z"/>
<path d="M920 330 c0 -5 7 -7 15 -4 8 4 15 8 15 10 0 2 -7 4 -15 4 -8 0 -15
-4 -15 -10z"/>
<path d="M968 333 c7 -3 16 -2 19 1 4 3 -2 6 -13 5 -11 0 -14 -3 -6 -6z"/>
<path d="M1357 323 c-4 -3 -6 -22 -6 -42 l1 -36 8 40 c8 42 8 49 -3 38z"/>
<path d="M1390 320 c0 -5 5 -10 10 -10 6 0 10 5 10 10 0 6 -4 10 -10 10 -5 0
-10 -4 -10 -10z"/>
<path d="M1426 315 c-9 -26 -7 -32 5 -12 6 10 9 21 6 23 -2 3 -7 -2 -11 -11z"/>
<path d="M972 296 c2 -25 18 -26 18 -1 0 7 12 16 28 18 22 3 20 4 -10 6 -34 1
-38 -1 -36 -23z"/>
<path d="M1063 275 c0 -27 2 -38 4 -22 2 15 2 37 0 50 -2 12 -4 0 -4 -28z"/>
<path d="M820 300 c0 -5 5 -10 10 -10 6 0 10 5 10 10 0 6 -4 10 -10 10 -5 0
-10 -4 -10 -10z"/>
<path d="M1007 287 c-8 -6 -17 -21 -19 -32 -2 -11 -10 -23 -18 -27 -9 -4 -1
-7 20 -7 40 -1 69 12 51 23 -6 4 -11 2 -11 -3 0 -6 -7 -11 -15 -11 -14 0 -14
4 0 31 19 35 16 44 -8 26z"/>
<path d="M1042 280 c0 -14 2 -19 5 -12 2 6 2 18 0 25 -3 6 -5 1 -5 -13z"/>
<path d="M784 274 c4 -9 1 -23 -5 -30 -9 -11 -9 -14 0 -14 13 0 31 40 24 53
-8 14 -25 7 -19 -9z"/>
<path d="M820 240 c0 -5 5 -10 10 -10 6 0 10 5 10 10 0 6 -4 10 -10 10 -5 0
-10 -4 -10 -10z"/>
<path d="M1347 233 c-3 -5 -1 -17 4 -28 7 -17 8 -17 8 8 1 27 -4 34 -12 20z"/>
<path d="M400 200 c0 -5 5 -10 11 -10 6 0 9 -7 6 -15 -9 -21 7 -27 28 -11 25
18 13 46 -20 46 -14 0 -25 -4 -25 -10z"/>
<path d="M1390 180 c5 -17 5 -32 -1 -35 -5 -4 -9 -12 -9 -18 0 -7 4 -6 10 3 5
8 12 11 16 7 4 -4 0 -15 -9 -24 -13 -13 -19 -14 -31 -3 -11 8 -16 9 -16 1 0
-6 1 -11 3 -12 1 0 21 -2 45 -5 45 -5 57 11 27 36 -9 8 -13 22 -10 39 5 22 4
23 -4 6 -9 -19 -10 -19 -10 2 -1 12 -5 24 -10 28 -6 3 -6 -6 -1 -25z m40 -70
c0 -5 -4 -10 -10 -10 -5 0 -10 5 -10 10 0 6 5 10 10 10 6 0 10 -4 10 -10z"/>
<path d="M974 166 c-8 -8 -7 -15 2 -24 17 -16 22 -15 40 3 14 13 13 15 -4 15
-11 0 -22 4 -24 9 -1 5 -8 4 -14 -3z"/>
<path d="M760 161 c0 -5 6 -11 13 -14 10 -4 10 -7 0 -18 -19 -19 -16 -28 7
-22 23 6 23 4 10 37 -9 25 -30 36 -30 17z"/>
<path d="M1068 128 c-25 -9 -28 -15 -28 -53 0 -24 3 -50 6 -59 8 -22 34 -20
34 2 1 15 2 15 16 -3 15 -19 16 -18 9 13 -4 18 -3 38 3 45 34 44 13 72 -40 55z
m9 -80 c-3 -7 -5 -2 -5 12 0 14 2 19 5 13 2 -7 2 -19 0 -25z"/>
<path d="M560 102 c0 -5 7 -9 15 -9 8 0 12 4 9 9 -7 10 -24 10 -24 0z"/>
<path d="M1358 74 c17 -8 15 -25 -5 -40 -15 -10 -16 -15 -5 -26 11 -11 15 -10
22 2 9 13 11 13 19 0 6 -8 13 -11 17 -7 4 4 2 13 -4 19 -7 7 -12 21 -12 32 1
21 1 21 16 1 l16 -20 -4 20 c-2 15 -12 21 -38 22 -19 1 -29 0 -22 -3z"/>
<path d="M1110 56 c0 -9 4 -15 9 -12 5 4 11 0 14 -6 2 -7 7 -10 11 -7 3 3 -3
14 -14 24 -18 17 -20 17 -20 1z"/>
</g>
</svg>
